<?xml version="1.0" encoding="UTF-8"?><svg id="Layer_1" xmlns="http://www.w3.org/2000/svg" width="24" height="24" viewBox="0 0 24 24"><path d="m10.53,1.28C5.35,1.28,1.13,5.42,1.13,10.56s4.23,9.28,9.41,9.28c2.23,0,4.29-.77,5.91-2.06l4.35,4.35c.38.4,1.02.41,1.41.02.4-.38.41-1.02.02-1.41,0,0-.02-.02-.02-.02l-4.34-4.34c1.34-1.64,2.08-3.7,2.08-5.82,0-5.14-4.23-9.28-9.41-9.28h0ZM3.13,10.56c0-4.01,3.3-7.28,7.41-7.28s7.41,3.27,7.41,7.28-3.3,7.28-7.41,7.28-7.41-3.27-7.41-7.28h0Z" style="fill:#fff;"/></svg>